<?xml version="1.0" encoding="UTF-8"?>
<!DOCTYPE svg PUBLIC "-//W3C//DTD SVG 1.1//EN" "http://www.w3.org/Graphics/SVG/1.1/DTD/svg11.dtd">
<!-- Creator: CorelDRAW 2020 (64-Bit) -->
<svg xmlns="http://www.w3.org/2000/svg" xml:space="preserve" width="297mm" height="420mm" version="1.1" style="shape-rendering:geometricPrecision; text-rendering:geometricPrecision; image-rendering:optimizeQuality; fill-rule:evenodd; clip-rule:evenodd"
viewBox="0 0 29700 42000"
 xmlns:xlink="http://www.w3.org/1999/xlink"
 xmlns:xodm="http://www.corel.com/coreldraw/odm/2003">
 <defs>
  <style type="text/css">
   <![CDATA[
    .fil4 {fill:none}
    .fil3 {fill:#8D00FF}
    .fil1 {fill:fuchsia}
    .fil0 {fill:url(#id7)}
    .fil2 {fill:url(#id8)}
   ]]>
  </style>
   <clipPath id="id0">
    <path d="M1520.68 8426.52l26670 0 0 23883.06 -26670 0 0 -23883.06z"/>
   </clipPath>
      <mask id="id1">
  <linearGradient id="id2" gradientUnits="userSpaceOnUse" x1="22411.57" y1="8131.06" x2="2807.17" y2="33070.84">
   <stop offset="0" style="stop-opacity:1; stop-color:white"/>
   <stop offset="1" style="stop-opacity:0; stop-color:white"/>
  </linearGradient>
       <rect style="fill:url(#id2)" x="5148.88" y="7707.82" width="19845.9" height="23178.4"/>
      </mask>
      <mask id="id3">
  <linearGradient id="id4" gradientUnits="userSpaceOnUse" x1="22307.54" y1="-27656.06" x2="-11608.08" y2="67772.71">
   <stop offset="0" style="stop-opacity:0.439216; stop-color:white"/>
   <stop offset="0.741176" style="stop-opacity:0.713725; stop-color:white"/>
   <stop offset="1" style="stop-opacity:0.988235; stop-color:white"/>
  </linearGradient>
       <rect style="fill:url(#id4)" x="4410.09" y="5433.53" width="20233.6" height="28258.9"/>
      </mask>
      <mask id="id5">
  <linearGradient id="id6" gradientUnits="userSpaceOnUse" x1="22100.63" y1="5946.19" x2="1379.52" y2="32126.75">
   <stop offset="0" style="stop-opacity:1; stop-color:white"/>
   <stop offset="1" style="stop-opacity:0; stop-color:white"/>
  </linearGradient>
       <rect style="fill:url(#id6)" x="4321.61" y="4911.1" width="20267.14" height="23297.14"/>
      </mask>
  <linearGradient id="id7" gradientUnits="userSpaceOnUse" x1="5119.34" y1="28631.14" x2="24592.02" y2="12104.96">
   <stop offset="0" style="stop-opacity:1; stop-color:#02024D"/>
   <stop offset="1" style="stop-opacity:1; stop-color:#4D00D0"/>
  </linearGradient>
  <linearGradient id="id8" gradientUnits="userSpaceOnUse" x1="23542.65" y1="12191.79" x2="5511.41" y2="28267.06">
   <stop offset="0" style="stop-opacity:1; stop-color:#142DE9"/>
   <stop offset="1" style="stop-opacity:1; stop-color:#000D84"/>
  </linearGradient>
 </defs>
 <g id="Слой_x0020_1">
  <metadata id="CorelCorpID_0Corel-Layer"/>
  <polygon class="fil0" points="1520.68,8426.52 28190.68,8426.52 28190.68,32309.58 1520.68,32309.58 "/>
  <g style="clip-path:url(#id0)">
   <g id="_2047152721376">
    <g>
     <path id="1" class="fil1" style="mask:url(#id1)" d="M12025.36 30454.01c-318.03,107.36 -662.87,-63.43 -770.23,-381.44 -107.37,-318.03 63.41,-662.86 381.45,-770.22 318.03,-107.36 662.86,63.41 770.2,381.44 107.37,318.01 -63.41,662.87 -381.42,770.22zm166.33 -21287.37c283.89,431.13 863.56,550.47 1294.69,266.6 431.12,-283.91 550.49,-863.56 266.58,-1294.69 -283.87,-431.1 -863.54,-550.47 -1294.63,-266.57 -431.17,283.86 -550.52,863.54 -266.64,1294.66zm-4329.9 2953.05c-896.56,-476.97 -2010.08,-136.84 -2487.09,759.73 -477,896.58 -136.86,2010.06 759.72,2487.06 896.56,477.02 2010.1,136.88 2487.1,-759.67 117.74,-221.3 185.59,-455.84 207.67,-690.74 -221.52,73.62 -471.61,59.89 -693.94,-58.39 -430.94,-229.29 -594.4,-764.44 -365.14,-1195.36 85.85,-161.38 214.59,-285.23 364.72,-365.01 -84.18,-66.03 -175.29,-125.6 -273.04,-177.62zm6808.8 1767.98c347.31,15.62 641.52,-253.29 657.14,-600.62 15.62,-347.32 -253.31,-641.54 -600.62,-657.14 -347.32,-15.63 -641.54,253.29 -657.17,600.61 -15.59,347.33 253.31,641.55 600.65,657.15zm5436.19 -329.04c-814.21,-606.99 -1966.31,-439 -2573.29,375.2 -607.01,814.2 -439.05,1966.31 375.17,2573.32 814.19,606.96 1966.32,438.99 2573.33,-375.2 149.83,-200.98 252.34,-422.56 309.67,-651.43 -230.09,39.31 -475.26,-12.04 -677.19,-162.58 -391.3,-291.75 -472.03,-845.47 -180.28,-1236.79 109.24,-146.53 255.24,-249.5 415.67,-305.68 -73.25,-78 -154.32,-150.66 -243.08,-216.84zm-1241.6 7241.77c-463.31,227.65 -654.32,787.8 -426.67,1251.07 227.66,463.3 787.8,654.33 1251.1,426.67 463.27,-227.65 654.3,-787.79 426.64,-1251.07 -227.64,-463.31 -787.79,-654.34 -1251.07,-426.67zm5763.98 1187.88c-391.3,-291.73 -945.02,-211.02 -1236.76,180.32 -291.74,391.33 -211.02,945.05 180.33,1236.78 391.31,291.7 945.04,210.98 1236.76,-180.35 291.73,-391.32 211.01,-945.04 -180.33,-1236.75zm-16216.12 -1796.87c202.82,443.96 727.13,639.45 1171.09,436.63 443.97,-202.82 639.42,-727.15 436.63,-1171.12 -202.83,-443.96 -727.15,-639.45 -1171.12,-436.61 -443.96,202.81 -639.46,727.14 -436.6,1171.1zm700.33 4449.21c369.14,-604.78 1238.79,-1130.22 2102.47,-853.87 360.23,118.37 563.38,502.47 455.24,868.57 -110.16,373.02 -501.95,586.14 -875.03,475.96 -127.82,-37.74 -1675.3,-485.34 -1682.68,-490.66zm5078.68 3535.13c-475.64,897.3 -133.83,2010.32 763.48,2485.95 897.29,475.63 2010.29,133.83 2485.93,-763.46 475.62,-897.3 133.8,-2010.29 -763.5,-2485.98 -194.8,-103.26 -399.8,-167.94 -606.21,-196.81 -11.21,185.5 -80.72,369.01 -210.94,521.02 -317.53,370.68 -875.48,413.74 -1246.17,96.2 -35.45,-30.38 -67.88,-62.97 -97.33,-97.37 -126.72,126.59 -236.98,273.93 -325.26,440.45z"/>
     <path class="fil2" style="mask:url(#id3)" d="M23821.98 29850.53c145.08,-17.7 277.11,85.69 294.83,230.79 17.74,145.1 -85.66,277.14 -230.76,294.86 -1694.3,206.34 -3329.17,-272.5 -4611.44,-1228.77 -1276.28,-951.84 -2203,-2376.23 -2491.41,-4068.29 -24.57,-144.11 72.44,-280.84 216.53,-305.42 144.11,-24.53 280.86,72.48 305.41,216.57 264.86,1553.88 1114.72,2861.04 2284.7,3733.61 1176.07,877.11 2676.4,1316.07 4232.14,1126.65zm786.4 1361.32c-294.45,1181.37 -1450.55,2489.84 -3008.75,2480.53 -651.45,-9.04 -1181.96,-534.46 -1192.81,-1190.33 -11.02,-668.25 521.9,-1219.1 1190.28,-1230.12 229.01,-3.77 2996.45,-65.04 3011.28,-60.08zm-8138.54 -17928.07c716.05,-310.57 1421.82,-1179.34 1251.91,-2163.73 -74.26,-411.01 -462.37,-691.21 -878.27,-629.02 -423.74,63.4 -716,458.34 -652.6,882.19 21.73,145.21 274.28,1901.71 278.96,1910.56zm230.85 3389.67c416.23,1010.9 277.25,2572.47 -854.23,3395.52 -475.74,340.39 -1139.09,243.02 -1496.21,-225.38 -363.78,-477.24 -271.91,-1159.2 205.49,-1523.16 163.56,-124.65 2131.62,-1642.64 2144.95,-1646.98zm-3606.66 -4669.53c-312.53,715.22 -1183.29,1418.58 -2167.19,1245.99 -410.81,-75.41 -689.89,-464.27 -626.57,-880.03 64.54,-423.54 460.24,-714.72 883.94,-650.15 145.17,22.1 1900.97,279.47 1909.82,284.19zm1109.1 -1304.51c145.54,-13.69 274.67,93.3 288.38,238.83 13.73,145.57 -93.27,274.67 -238.82,288.4 -1699.34,159.46 -3320.41,-364.29 -4575.75,-1355.61 -1249.54,-986.72 -2136.6,-2436.17 -2378.19,-4135.49 -20.55,-144.73 80.16,-278.75 224.94,-299.33 144.72,-20.6 278.74,80.16 299.31,224.91 221.82,1560.57 1035.27,2890.69 2180.7,3795.23 1151.41,909.27 2639.1,1389.45 4199.43,1243.06zm4573.71 19938.4c-423.07,-148.91 -886.75,73.36 -1035.65,496.42 -148.93,423.08 73.34,886.76 496.41,1035.65 423.06,148.93 886.73,-73.33 1035.65,-496.4 148.89,-423.05 -73.35,-886.74 -496.41,-1035.67zm-9811.97 -18340.07c-430.9,-229.28 -966.08,-65.79 -1195.32,365.13 -229.26,430.91 -65.8,966.06 365.15,1195.35 430.9,229.24 966.08,65.76 1195.33,-365.15 229.26,-430.92 65.77,-966.09 -365.16,-1195.33zm-1130.73 5915.37c-535.65,567.72 -1592.71,935.84 -2460.59,441.22 -361.25,-209.68 -492.66,-669.92 -292.69,-1039.9 203.72,-376.88 674.51,-517.36 1051.55,-313.57 129.17,69.83 1694.99,904.84 1701.73,912.25zm-1717.44 2126.1c-404.45,-83.76 -800.22,176.19 -883.99,580.64 -83.75,404.43 176.2,800.22 580.65,883.97 404.43,83.74 800.21,-176.18 883.97,-580.63 83.73,-404.45 -176.2,-800.22 -580.63,-883.98zm-1302.91 6633.62c-124.41,76.74 -287.58,37.95 -364.3,-86.46 -76.73,-124.45 -37.94,-287.59 86.5,-364.31 1453.11,-895.34 3138.53,-1143.42 4703.01,-810.34 1557.25,331.55 2994.34,1238.43 3963.3,2655.22 82.53,120.64 51.54,285.42 -69.1,367.91 -120.64,82.54 -285.45,51.55 -367.98,-69.11 -889.82,-1301.09 -2208.11,-2133.59 -3635.6,-2437.51 -1435.01,-305.54 -2981.5,-77.48 -4315.83,744.6zm1568 565.52c892.25,-631.68 2445.35,-845.35 3500.52,73.48 438.14,387.64 491.57,1055.93 114.84,1508.71 -383.81,461.3 -1069.04,524.21 -1530.5,140.28 -158.12,-131.56 -2077.68,-1710.45 -2084.86,-1722.47zm2799.17 -6534.62c422,923.72 1512.97,1330.45 2436.69,908.45 923.74,-421.99 1330.46,-1512.95 908.47,-2436.66 -422.02,-923.76 -1512.96,-1330.48 -2436.68,-908.48 -923.75,421.99 -1330.49,1512.95 -908.48,2436.69zm6721.29 -6422.51c74.31,-125.9 236.72,-167.63 362.62,-93.33 125.87,74.3 167.62,236.73 93.31,362.63 -868.23,1469.44 -2243.71,2474.58 -3783.11,2909.17 -1532.26,432.55 -3226.39,300.12 -4744.11,-501.65 -129.23,-68.3 -178.63,-228.5 -110.32,-357.76 68.29,-129.26 228.5,-178.63 357.74,-110.35 1393.77,736.31 2948.13,858.34 4352.73,461.8 1411.96,-398.6 2673.88,-1321.27 3471.14,-2670.51zm8001.53 7026.75c-814.2,-606.99 -1966.31,-439.03 -2573.33,375.2 -606.96,814.2 -439,1966.31 375.2,2573.3 814.21,606.99 1966.32,439.03 2573.31,-375.17 607.03,-814.19 439.04,-1966.32 -375.18,-2573.33zm-15292.77 -10986.43c-996.93,448.64 -2562.16,360.17 -3421.31,-744.15 -355.59,-464.52 -279.69,-1130.64 176.91,-1502.72 465.25,-379 1149.83,-309.2 1529.01,156.21 129.89,159.43 1710.64,2077.47 1715.39,2090.66zm12559.39 3279.83c-391.31,-291.72 -945.05,-210.99 -1236.77,180.33 -291.75,391.31 -211.02,945.03 180.29,1236.79 391.33,291.73 945.08,211 1236.8,-180.33 291.75,-391.31 210.99,-945.03 -180.32,-1236.79zm-4077.98 8703.78c-4.63,146.13 -126.96,260.84 -273.08,256.2 -146.12,-4.62 -260.8,-126.94 -256.18,-273.08 54.65,-1705.91 777.32,-3248.62 1918.06,-4369.9 1135.45,-1116.1 2684.6,-1814.63 4400.82,-1841.45 146.17,-2.27 266.52,114.44 268.79,260.64 2.3,146.14 -114.44,266.49 -260.63,268.79 -1576.09,24.6 -2997.62,665.05 -4038.5,1688.14 -1046.32,1028.47 -1709.06,2444.27 -1759.28,4010.66zm-2574.53 3981.92c-317.55,370.68 -274.46,928.6 96.19,1246.14 370.7,317.54 928.64,274.49 1246.17,-96.19 317.53,-370.69 274.49,-928.63 -96.21,-1246.17 -370.68,-317.52 -928.6,-274.46 -1246.15,96.22zm7295.16 2245.24c954.54,85.2 2225.43,-437.67 2619.76,-1599.03 161.07,-486.88 -93.12,-1016.77 -578.16,-1193.72 -494.17,-180.31 -1041.11,74.17 -1221.45,568.5 -61.78,169.38 -820.02,2211.97 -820.15,2224.25z"/>
     <path class="fil3" style="mask:url(#id5)" d="M6069.7 5538.24c220.31,454.62 30.29,1001.78 -424.35,1222.04 -454.62,220.25 -1001.75,30.25 -1222.01,-424.36 -220.25,-454.65 -30.25,-1001.78 424.37,-1222.04 454.61,-220.28 1001.76,-30.27 1221.99,424.36zm-1618.73 19500.07c87.42,-1218.92 1004.79,-2712.06 2547.16,-2971.6 645.71,-103.43 1260.87,324.58 1384.7,971.25 126.18,658.84 -305.7,1295.36 -964.74,1421.58 -225.79,43.25 -2951.61,581.11 -2967.12,578.77zm11089.1 455.4c-1287.39,-43.27 -2896.87,-949.8 -3231.97,-2564 -134.8,-676 291.4,-1341.08 967.6,-1497.41 688.92,-159.25 1376.69,270.18 1535.97,959.3 54.59,236.11 730.23,3085.71 728.4,3102.11zm-3116.24 1447.75c347.32,15.62 641.53,-253.28 657.14,-600.62 15.62,-347.32 -253.3,-641.55 -600.62,-657.14 -347.32,-15.62 -641.53,253.29 -657.15,600.62 -15.61,347.32 253.31,641.54 600.63,657.14zm7386.45 1256.78c744.57,-920.35 1083.28,-2583.82 163.64,-3787.85 -388.49,-500.38 -1106.93,-604.5 -1622.41,-228.85 -525.13,382.73 -640.68,1118.87 -257.82,1644.18 131.16,179.99 1704.09,2363.91 1716.59,2372.52zm-199.07 -9332.18c758.23,1125.77 2467.59,2056.73 4096.78,1453.85 679.16,-257.43 1035.02,-1009.89 796.72,-1701.28 -242.8,-704.39 -1010.81,-1078.74 -1715.39,-835.84 -241.44,83.22 -3164.48,1072.46 -3178.11,1083.27zm4148.65 -3188.78c-478.65,161.62 -997.67,-95.45 -1159.27,-574.08 -161.58,-478.64 95.45,-997.64 574.11,-1159.23 478.66,-161.59 997.68,95.45 1159.25,574.08 161.57,478.64 -95.46,997.68 -574.09,1159.23zm-14802.11 100.93c912.16,739.8 2562.1,1077.86 3757.77,166.93 496.92,-384.8 601.07,-1097.49 229.03,-1609.31 -379.11,-521.47 -1109.29,-636.99 -1630.94,-257.81 -178.7,129.93 -2347.33,1687.78 -2355.86,1700.19zm779.86 -7374.98c716.98,-626.71 1214.82,-1898.38 651.97,-2979.45 -238.86,-450.12 -793.92,-631.73 -1254.26,-405.09 -468.97,230.92 -662.05,798.42 -431.07,1267.52 79.15,160.75 1024.64,2108.51 1033.36,2117.02z"/>
    </g>
   </g>
  </g>
  <polygon class="fil4" points="1520.68,8426.52 28190.68,8426.52 28190.68,32309.58 1520.68,32309.58 "/>
 </g>
</svg>
