<?xml version="1.0" encoding="utf-8"?>
<!-- Generator: Adobe Illustrator 21.0.0, SVG Export Plug-In . SVG Version: 6.00 Build 0)  -->
<svg version="1.1" id="Слой_1" xmlns="http://www.w3.org/2000/svg" xmlns:xlink="http://www.w3.org/1999/xlink" x="0px" y="0px"
	 viewBox="0 0 2300 1400" style="enable-background:new 0 0 2300 1400;" xml:space="preserve">
<style type="text/css">
	.st0{opacity:0.4;clip-path:url(#SVGID_2_);}
	.st1{clip-path:url(#SVGID_4_);fill:#87C7ED;}
	.st2{clip-path:url(#SVGID_6_);fill:#FF00F2;}
	.st3{clip-path:url(#SVGID_8_);fill:#A100FF;}
	.st4{clip-path:url(#SVGID_2_);fill:#FFFFFF;}
	.st5{fill:none;}
	.st6{clip-path:url(#SVGID_10_);fill:url(#SVGID_11_);}
	.st7{fill:#1E00FC;}
	.st8{fill-rule:evenodd;clip-rule:evenodd;fill:#1E00FC;}
	.st9{fill-rule:evenodd;clip-rule:evenodd;fill:#8C00FF;}
	.st10{fill-rule:evenodd;clip-rule:evenodd;fill:#FF00F1;}
	.st11{fill-rule:evenodd;clip-rule:evenodd;fill:#2300FC;}
</style>
<g>
	<defs>
		<rect id="SVGID_1_" width="2300" height="1400"/>
	</defs>
	<clipPath id="SVGID_2_">
		<use xlink:href="#SVGID_1_"  style="overflow:visible;"/>
	</clipPath>
	<g class="st0">
		<g>
			<defs>
				<rect id="SVGID_3_" x="986.9" y="536.6" width="270.3" height="270.3"/>
			</defs>
			<clipPath id="SVGID_4_">
				<use xlink:href="#SVGID_3_"  style="overflow:visible;"/>
			</clipPath>
			<path class="st1" d="M1122.1,806c73.9,0,134.1-60.3,134.1-134.2c0-73.9-60.3-134.1-134.1-134.1c-73.9,0-134.2,60.3-134.2,134.1
				C987.9,745.7,1048.2,806,1122.1,806"/>
		</g>
	</g>
	<g class="st0">
		<g>
			<defs>
				<rect id="SVGID_5_" x="1042.8" y="559.3" width="270.3" height="270.3"/>
			</defs>
			<clipPath id="SVGID_6_">
				<use xlink:href="#SVGID_5_"  style="overflow:visible;"/>
			</clipPath>
			<path class="st2" d="M1177.9,828.6c73.9,0,134.1-60.3,134.1-134.1c0-73.9-60.3-134.2-134.1-134.2c-73.9,0-134.1,60.3-134.1,134.2
				C1043.8,768.4,1104.1,828.6,1177.9,828.6"/>
		</g>
	</g>
	<g class="st0">
		<g>
			<defs>
				<rect id="SVGID_7_" x="986.1" y="586.8" width="277.3" height="276.6"/>
			</defs>
			<clipPath id="SVGID_8_">
				<use xlink:href="#SVGID_7_"  style="overflow:visible;"/>
			</clipPath>
			<path class="st3" d="M1128.3,862.4c73.9,0,134.1-60.3,134.1-134.1c0-73.9-60.3-134.2-134.1-134.2c-73.9,0-134.2,60.3-134.2,134.2
				C994.1,802.1,1054.3,862.4,1128.3,862.4"/>
		</g>
	</g>
	<path class="st4" d="M1191,571.1c69.6,25.8,105.2,103.1,79.4,172.7c-25.7,69.6-103.1,105.1-172.6,79.4
		c-69.6-25.8-105.2-103.1-79.4-172.7C1044.1,580.9,1121.4,545.4,1191,571.1"/>
</g>
<rect class="st5" width="2300" height="1400"/>
<g>
	<g>
		<defs>
			<path id="SVGID_9_" d="M1140.5,691.7c1.6-0.6,2.8-1.1,4.2-1.4c1.3-0.3,2.1-0.3,3.4,0c1.3,0.3,2.5,0.7,4,1.4
				c-1.5,1.6-2.1,3.3-3.6,4.3c-1.5,0.9-3,0.9-4.4,0C1142.6,695,1142,693.3,1140.5,691.7 M1140.6,675.3c1,1.2,3.4,2.5,5.9,2.5
				c2.2-0.1,4.6-1.4,5.5-2.5c0.3-0.3,1.1-1.4,0.1-1.4c-0.3,0-3.2,1.1-6,1.1c-1.6,0-3.6-0.5-4.7-0.9
				C1140.2,673.7,1139.5,674,1140.6,675.3z M1154.6,657.5c-0.2,2.1,0.2,4.7,1.5,5.3c2.3,1.1,6,1.9,9.4,1.8c4.7,0,9.1-1.3,10.4-2.5
				c-1.3-0.7-3-1.4-3.6-2.6c-0.8-1.4-0.9-1.9-1.1-2.4C1170.1,655.2,1168.6,662.8,1154.6,657.5z M1138,657.5c0.2,2.1-0.2,4.7-1.5,5.3
				c-2.3,1.1-6,1.9-9.4,1.8c-4.7,0-9.1-1.3-10.4-2.5c1.3-0.7,3-1.4,3.6-2.6c0.8-1.4,0.9-1.9,1.1-2.4
				C1122.6,655.2,1124,662.8,1138,657.5z M1146.3,685.7c1-1,2.4-1.2,3.8-0.4c2,1.1,6.1,4.4,7.6,4.9c-0.7,2.1-1.6,5.1-3,7.6
				c-1.6,2.8-4.1,5.2-7.5,5.5c-2.4,0.3-5-0.6-6.9-2.2c-3.2-2.7-4.5-7.7-5.6-10.9c1.5-0.4,5.6-3.7,7.6-4.9
				C1143.9,684.5,1145.3,684.7,1146.3,685.7z M1115.9,685.5c0.2,0.6,0.5,1.2,0.7,1.6l0.1,0.2c0.2,0.5,0.5,0.9,0.8,1.4
				c3.5,6.1,11.4,18,20.5,23.9c2.5,1.6,5.5,2.3,8.2,2.3c2.8,0.1,5.7-0.6,8.2-2.3c1.6-1,3.1-2.2,4.6-3.6l0,0l0,0
				c6.6-5.9,12.2-14.1,15.3-19.3c0.6-0.9,1.1-1.8,1.5-2.5c0.5-0.9,0.9-2,1.3-3.3c4.3-11.5,1.7-24.6-1.2-37.4
				c-0.1-0.4-0.2-0.8-0.3-1.2l-0.1-0.4c0,0,0-0.1,0-0.1c-4.2-3.6-13.2-5.4-17.8-5.6c-2.5-0.1-3.1,0.6-3.5-3
				c-0.1-1.4,0.3-2.6,0.8-2.7c2.7-0.6,7.9,0.3,12.6,2c-1-7.4-28.9-22.4-29.2-22.8c-3.2,3.3-9.8,8.2-14.2,12.5c-2.1,2-4.1,4-4.9,7.1
				c-0.3,1.1-0.6,2.6-1,4.4c-0.1,0.7-0.3,1.4-0.4,2.1c0.8-0.6,1.7-1.2,2.8-1.7c5.4-2.9,13-4.4,16.4-3.7c0.5,0.1,0.9,1.3,0.8,2.7
				c-0.4,3.6-1,2.9-3.5,3c-4.6,0.2-13.6,2-17.8,5.6C1113.7,658.6,1110.5,673.1,1115.9,685.5z M1198.3,661.9c-0.1,0,3.2-2.4,3.5-4.4
				c0.3-1.3,5.5-1.6,9.5-1.7c1.8-0.1,3.4-0.1,4.1-0.2c1.5-0.3-0.4,2.3-4.1,4.1C1207.4,661.7,1201.5,662.9,1198.3,661.9z
				 M1090.8,643.6c-7.5-2.1-13.4-2.9-26.8,1.1c-0.4,0.2,1-1.1,3.1-2.6c4.9-3.5,18.7-8.6,25.3-3.1
				C1095.1,641.3,1094.8,644.7,1090.8,643.6z M1093.1,662.1c-1.4-1.7-3.1-4.7-3.5-5.8c-0.8-1.6-11.3-3.3-15.1-5.4c1.1,2.1,2,5,4,6.5
				C1083.7,661.1,1091.4,662.2,1093.1,662.1z M1146.2,734.1c3.3,0,6.3,1.4,8.5,3.5c2.2,2.2,3.5,5.2,3.5,8.5v20.4
				c0,3.3-1.4,6.3-3.5,8.5c-2.2,2.2-5.2,3.5-8.5,3.5s-6.3-1.4-8.5-3.5c-2.2-2.2-3.5-5.2-3.5-8.5v-20.4c0-3.3,1.4-6.3,3.5-8.5
				C1139.9,735.5,1142.9,734.1,1146.2,734.1z M1165.8,762c0-1.6,1.3-3,3-3s3,1.3,3,3v5.3c0,7-2.9,13.4-7.5,18c-4,4-9.2,6.6-15,7.3
				v15.5c0,0.2,0,0.2,0,1.2l0,1.2c0,1.6-1.4,2.9-3,2.9c-1.6,0-2.9-1.4-2.9-3l0-1.1c0-0.3,0-0.1,0-1.1v-15.5
				c-5.8-0.7-11.1-3.4-15.1-7.3c-4.6-4.6-7.5-11-7.5-18V762c0-1.6,1.3-3,3-3c1.6,0,3,1.3,3,3v5.3c0,5.4,2.2,10.3,5.7,13.8
				c3.5,3.5,8.4,5.7,13.8,5.7c5.4,0,10.3-2.2,13.8-5.7c3.5-3.5,5.7-8.4,5.7-13.8V762z M1188.7,575.1c56.7,21,89.8,77.5,83.4,135
				c-3.1-5.3-7.8-9.6-13.6-11.6c-12-4.2-34.7-2.2-30.1-24.7c1.8-9.1,14.9-26.1-5.1-34.3c-7.7-3.1-9.3-9.8-10.9-13.9
				c-1.3-3.2-4.6-3.3-6.7-0.7c-4.4,5.4-6,12.8-6.7,17.7c7.9-4.9,16.5,1.8,20.2,5.6c1.5,1.5,1.4,1.8,0.5,1.4
				c-5.2-2.3-13.4-6.3-21-2.1c-0.1,8.7-1.3,12-6.7,17.7c-1.3,1.4-2.4,2.2-3.3,3.7c-0.7,1.2-0.8,2.6,0.7,4.2c1.2,1.3,5.3,2.1,5.5,4.8
				c0.3,1.4-1.3,3.2-2.5,3.8c-0.7,0.3-1.6,2.7,1.2,4.8c1.8,1.5,4.1,2.3,6.7,3.9c3.4,2,1.3,4.8-0.4,5.7c-1.9,1.1-4.1,2.5-4.6,4.7
				c-0.2,1,0.3,2.8,1.4,2.6c0.9-0.2,1.8,0.8,2,1.6c0.6,2.1-1.5,7,0.7,9.9c2.7,3.5,6.8,2.2,10.4,0.6c5.5-2.5,14.2-6.2,20.5-4.9
				c3,0.6,6.1,2.2,8.1,5c6.3,8.5,3.1,18.2-3,26.2c-4,5.4-10.8,10.3-16.1,8c-13.7-5.8-20.6,2.1-32.1,0.6c-10.3-1.4-18.8-9.8-20-20.1
				c-0.5-4.1-0.6-14.4-0.2-18.9c-14.6,22.2-26.7,20.4-40.2-0.3c0.4,4.5,1.1,15.1,0.6,19.2c-0.3,2.7-1.1,5.1-2.1,6.7
				c-5.6,8.5-16.3,14.2-30.7,11.6c-6.9-1.3-18.4-3-26.5,5.8c-17.2-13.8-18.7-41.8-13.9-48.5c0.7-1,16.6,19.9,28,14.3
				c4.9-2.4,2.1-7.6,2.7-10.7c0.1-0.8,0.3-1.6,2-1.8c0.8-0.1,1.6,0.6,2.6-0.1c1.2-0.7,2.1-3.1,0.1-4.3c-20.4-12.3,5.2-11.5,7-15.6
				c0.5-0.9-0.1-2.2-0.6-2.5c-1.5-0.8-1.7-3-1.1-4.5c1.6-4.1,7.3-3.6,9.6-6.3c1.1-1.3,0.6-3.7-1-4.9c-7.8-6.2-7.5-12.1-5-20.1
				c2.2-6.8-1.1-21.9-4.9-27.9c-0.1-0.1-0.1-0.2-0.2-0.3c-18.7,10.4-53.3,19.3-38.8,40.8c12.8,14.9,8.9,27.5-11.1,31
				c-9.8,1.7-19.3,9.1-24.5,19c-0.9,1.7-1.7,3.4-2.4,5.2c-3.5-21.3-1.7-43.8,6.4-65.5C1047.7,584.4,1121.9,550.3,1188.7,575.1z"/>
		</defs>
		<clipPath id="SVGID_10_">
			<use xlink:href="#SVGID_9_"  style="overflow:visible;"/>
		</clipPath>
		<linearGradient id="SVGID_11_" gradientUnits="userSpaceOnUse" x1="1020.4361" y1="656.193" x2="1273.0756" y2="707.9059">
			<stop  offset="0" style="stop-color:#8D00FF"/>
			<stop  offset="1" style="stop-color:#0A00FC"/>
		</linearGradient>
		<rect x="1013.1" y="550.3" class="st6" width="265.3" height="263"/>
	</g>
	<path class="st7" d="M1185.5,820.8c-0.9,0.4-1.9,0.1-2.3-0.8c-0.4-0.9-0.1-1.9,0.8-2.3c9.1-4.4,15.7-12.1,19-20.9l0.1-0.1
		c3.2-8.8,3.2-18.8-0.8-28.1c-0.4-0.9,0-1.9,0.9-2.3c0.9-0.4,1.9,0,2.3,0.9c4.4,10.1,4.4,21.1,0.8,30.7l0,0.2
		C1202.7,807.6,1195.5,816,1185.5,820.8"/>
	<path class="st8" d="M1182.1,774.7c-5.7,3.2-7.8,10.4-4.6,16.2c3.2,5.7,10.4,7.8,16.2,4.6c5.7-3.2,7.8-10.4,4.6-16.2
		C1195.1,773.6,1187.8,771.5,1182.1,774.7"/>
	<path class="st9" d="M1215.7,783c5.2-2.5,10.3-9,8.8-16.3c-0.6-3-3.6-5-6.6-4.5c-3.1,0.6-5.2,3.5-4.6,6.7
		C1213.4,770,1215.7,782.9,1215.7,783"/>
	<path class="st8" d="M1189.8,805.6c-2.4,4.4-8.3,8.5-14.6,6.9c-2.6-0.7-4.2-3.3-3.6-6c0.6-2.7,3.3-4.4,6-3.7
		C1178.5,803,1189.7,805.5,1189.8,805.6"/>
	<path class="st9" d="M1177.7,784.1c-2.8,1.5-3.7,5-2.2,7.8c1.5,2.8,5,3.7,7.8,2.2c2.8-1.5,3.7-5,2.2-7.8
		C1183.9,783.5,1180.5,782.6,1177.7,784.1"/>
	<path class="st10" d="M1206.1,811.7c7.3,1.3,17.6-1.9,21.4-10.6c1.6-3.7,0-7.9-3.7-9.6c-3.7-1.7-8.1-0.1-9.9,3.6
		C1213.3,796.3,1206.1,811.6,1206.1,811.7"/>
	<path class="st7" d="M1269.1,729.7c1,0,1.8,0.7,1.8,1.7c0,1-0.7,1.8-1.7,1.8c-9.5,0.4-18.1,4.4-24.3,10.8c-6.2,6.4-10,15-10.1,24.6
		c0,1-0.8,1.7-1.8,1.7c-1,0-1.7-0.8-1.7-1.8c0.1-10.5,4.3-20,11.1-27C1249.2,734.6,1258.6,730.1,1269.1,729.7"/>
	<path class="st9" d="M1251.2,776.5c5.6-0.5,9.7-5.5,9.2-11.1c-0.5-5.6-5.5-9.7-11.1-9.2c-5.6,0.5-9.7,5.5-9.2,11.1
		C1240.7,772.9,1245.7,777,1251.2,776.5"/>
	<path class="st8" d="M1250,748.4c3.6-5.1,11.6-9.3,19-6.4c3.1,1.2,4.7,4.7,3.5,7.9c-1.2,3.2-4.8,4.9-8,3.7
		C1263.5,753.3,1250.1,748.5,1250,748.4"/>
	<path class="st10" d="M1257.5,726.7c3.6-0.3,6.2-3.5,5.9-7.1c-0.3-3.6-3.5-6.2-7.1-5.9c-3.6,0.3-6.2,3.5-5.9,7.1
		C1250.7,724.4,1253.9,727,1257.5,726.7"/>
	<path class="st11" d="M1249.8,754.9c-2.4-1.2-5.3-0.2-6.6,2.2c-1.2,2.4-0.2,5.4,2.2,6.6c2.4,1.2,5.3,0.2,6.6-2.2
		S1252.2,756.1,1249.8,754.9"/>
	<path class="st8" d="M1230.2,784.7c0.2-2.3,2.2-4.1,4.5-3.9c2.3,0.2,4.1,2.2,3.9,4.5c-0.2,2.3-2.2,4.1-4.5,3.9
		C1231.8,789.1,1230,787.1,1230.2,784.7"/>
	<path class="st8" d="M1167,797.8c-0.1,1.9-1.6,3.3-3.5,3.3c-1.9-0.1-3.3-1.6-3.3-3.5c0.1-1.9,1.6-3.3,3.5-3.3
		C1165.6,794.3,1167.1,795.9,1167,797.8"/>
	<path class="st7" d="M1110.6,817.5c0.9,0.4,1.2,1.5,0.8,2.3c-0.4,0.9-1.5,1.2-2.3,0.8c-10.1-4.9-17.5-13.5-21.2-23.4
		c-3.7-9.9-3.7-21.1,0.8-31.5c0.4-0.9,1.4-1.3,2.3-0.9c0.9,0.4,1.3,1.4,0.9,2.3c-4.1,9.6-4.1,19.9-0.7,28.9
		C1094.6,805.2,1101.3,813,1110.6,817.5"/>
	<path class="st10" d="M1064.2,774.9c-5.9,3.3-8,10.7-4.7,16.5c3.3,5.9,10.7,8,16.5,4.7c5.9-3.3,8-10.7,4.7-16.5
		C1077.5,773.7,1070.1,771.6,1064.2,774.9"/>
	<path class="st9" d="M1097.8,797.5c8-2.6,16.5-11.2,15.6-22c-0.4-4.5-4.3-7.9-8.8-7.6c-4.6,0.3-8.2,4.2-7.9,8.8
		C1096.8,778.2,1097.7,797.4,1097.8,797.5"/>
	<path class="st8" d="M1103.3,804.8c4.1,3.2,11.3,4.5,16.5,0.4c2.2-1.7,2.6-4.9,0.9-7.1c-1.7-2.3-4.9-2.7-7.2-1
		C1112.7,797.7,1103.3,804.7,1103.3,804.8"/>
	<path class="st11" d="M1069.2,769.4c-2.8,1.6-3.8,5.1-2.3,7.9c1.6,2.8,5.1,3.8,7.9,2.3c2.8-1.6,3.8-5.1,2.3-7.9
		C1075.5,768.8,1072,767.8,1069.2,769.4"/>
	<path class="st8" d="M1091.3,811.6c-4.3,3.1-11.9,4.2-17.1-0.2c-2.2-1.9-2.4-5.1-0.6-7.3c1.9-2.3,5.2-2.6,7.5-0.7
		C1081.9,804,1091.3,811.6,1091.3,811.6"/>
	<path class="st7" d="M1023.9,729.7c-1-0.1-1.7-0.9-1.6-1.9c0.1-1,0.9-1.7,1.9-1.6c10.6,1.1,20,6.2,26.5,13.8
		c6.5,7.5,10.2,17.5,9.6,28.2c0,1-0.9,1.7-1.8,1.7c-1,0-1.7-0.9-1.7-1.8c0.5-9.8-2.9-18.9-8.8-25.8
		C1042.1,735.3,1033.6,730.6,1023.9,729.7"/>
	<path class="st9" d="M1036.8,755.7c4.1-4,4.1-10.6,0.1-14.7c-4-4.1-10.6-4.1-14.7-0.1c-4.1,4-4.1,10.6-0.1,14.7
		C1026.2,759.7,1032.8,759.8,1036.8,755.7"/>
	<path class="st8" d="M1049.1,754.9c-6.8,1.5-14.4,7.9-14.6,16.8c0,3.7,2.9,6.8,6.6,7c3.8,0.2,7-2.8,7.2-6.6
		C1048.4,770.8,1049.2,755,1049.1,754.9"/>
	<path class="st9" d="M1034.4,720c-3.6-0.6-6.1-4-5.6-7.6c0.6-3.6,4-6.1,7.6-5.6c3.6,0.6,6.1,4,5.6,7.6
		C1041.4,718.1,1038,720.6,1034.4,720"/>
	<path class="st8" d="M1021.7,739.5c-2.7,0.6-4.4,3.3-3.8,6c0.6,2.7,3.3,4.4,6,3.8c2.7-0.6,4.4-3.3,3.8-6
		C1027.1,740.6,1024.4,738.9,1021.7,739.5"/>
	<path class="st10" d="M1126,811.7c0.1,2.7,2.4,4.9,5.1,4.8c2.7-0.1,4.9-2.4,4.8-5.1c-0.1-2.7-2.4-4.9-5.1-4.8
		C1128,806.6,1125.9,808.9,1126,811.7"/>
	<path class="st9" d="M1051,789c-0.2,1.9-1.8,3.2-3.7,3.1c-1.9-0.2-3.2-1.8-3.1-3.7c0.2-1.9,1.8-3.2,3.7-3.1
		C1049.8,785.4,1051.1,787.1,1051,789"/>
</g>
</svg>
