<svg width="77" height="11" viewBox="0 0 77 11" fill="none" xmlns="http://www.w3.org/2000/svg">
<path d="M11.0642 0.315999V10H8.25621V2.62H5.19621L5.10621 4.33C5.05821 5.602 4.93821 6.658 4.74621 7.498C4.55421 8.338 4.24221 8.998 3.81021 9.478C3.37821 9.958 2.77821 10.198 2.01021 10.198C1.60221 10.198 1.11621 10.126 0.552212 9.982L0.696212 7.678C0.888212 7.702 1.02621 7.714 1.11021 7.714C1.53021 7.714 1.84221 7.564 2.04621 7.264C2.26221 6.952 2.40621 6.562 2.47821 6.094C2.55021 5.614 2.60421 4.984 2.64021 4.204L2.78421 0.315999H11.0642ZM18.0305 10.144C17.0105 10.144 16.0925 9.934 15.2765 9.514C14.4725 9.082 13.8425 8.488 13.3865 7.732C12.9305 6.976 12.7025 6.118 12.7025 5.158C12.7025 4.198 12.9305 3.34 13.3865 2.584C13.8425 1.828 14.4725 1.24 15.2765 0.819999C16.0925 0.388 17.0105 0.172 18.0305 0.172C19.0505 0.172 19.9625 0.388 20.7665 0.819999C21.5705 1.24 22.2005 1.828 22.6565 2.584C23.1125 3.34 23.3405 4.198 23.3405 5.158C23.3405 6.118 23.1125 6.976 22.6565 7.732C22.2005 8.488 21.5705 9.082 20.7665 9.514C19.9625 9.934 19.0505 10.144 18.0305 10.144ZM18.0305 7.84C18.7505 7.84 19.3385 7.6 19.7945 7.12C20.2625 6.628 20.4965 5.974 20.4965 5.158C20.4965 4.342 20.2625 3.694 19.7945 3.214C19.3385 2.722 18.7505 2.476 18.0305 2.476C17.3105 2.476 16.7165 2.722 16.2485 3.214C15.7805 3.694 15.5465 4.342 15.5465 5.158C15.5465 5.974 15.7805 6.628 16.2485 7.12C16.7165 7.6 17.3105 7.84 18.0305 7.84ZM32.7598 2.62H27.7918V10H25.0018V0.315999H32.7598V2.62ZM38.1096 10.144C37.0896 10.144 36.1716 9.934 35.3556 9.514C34.5516 9.082 33.9216 8.488 33.4656 7.732C33.0096 6.976 32.7816 6.118 32.7816 5.158C32.7816 4.198 33.0096 3.34 33.4656 2.584C33.9216 1.828 34.5516 1.24 35.3556 0.819999C36.1716 0.388 37.0896 0.172 38.1096 0.172C39.1296 0.172 40.0416 0.388 40.8456 0.819999C41.6496 1.24 42.2796 1.828 42.7356 2.584C43.1916 3.34 43.4196 4.198 43.4196 5.158C43.4196 6.118 43.1916 6.976 42.7356 7.732C42.2796 8.488 41.6496 9.082 40.8456 9.514C40.0416 9.934 39.1296 10.144 38.1096 10.144ZM38.1096 7.84C38.8296 7.84 39.4176 7.6 39.8736 7.12C40.3416 6.628 40.5756 5.974 40.5756 5.158C40.5756 4.342 40.3416 3.694 39.8736 3.214C39.4176 2.722 38.8296 2.476 38.1096 2.476C37.3896 2.476 36.7956 2.722 36.3276 3.214C35.8596 3.694 35.6256 4.342 35.6256 5.158C35.6256 5.974 35.8596 6.628 36.3276 7.12C36.7956 7.6 37.3896 7.84 38.1096 7.84ZM52.8654 2.62H49.5894V10H46.7994V2.62H43.5234V0.315999H52.8654V2.62ZM54.0922 0.315999H56.8822V6.076L61.5982 0.315999H64.1722V10H61.3822V4.24L56.6842 10H54.0922V0.315999ZM76.2315 0.315999V10H73.4235V2.62H69.3915V10H66.6015V0.315999H76.2315Z" fill="#0247BF"/>
</svg>
